<mxfile host="app.diagrams.net" modified="2021-01-20T02:37:26.548Z" agent="5.0 (Macintosh; Intel Mac OS X 10_13_6) AppleWebKit/537.36 (KHTML, like Gecko) Chrome/87.0.4280.141 Safari/537.36" etag="J79qIZ13VUZpKuk5Vfdy" version="14.2.5" type="github">
  <diagram id="c-a2vvxXRm0Cl9RfLMZ9" name="Kafka">
    <mxGraphModel dx="946" dy="536" grid="1" gridSize="10" guides="1" tooltips="1" connect="1" arrows="1" fold="1" page="1" pageScale="1" pageWidth="827" pageHeight="1169" math="0" shadow="0">
      <root>
        <mxCell id="0" />
        <mxCell id="1" parent="0" />
        <mxCell id="X7r1lvJRG04JxE0E0nNi-3" value="" style="edgeStyle=orthogonalEdgeStyle;rounded=0;orthogonalLoop=1;jettySize=auto;html=1;curved=1;" edge="1" parent="1" source="X7r1lvJRG04JxE0E0nNi-1" target="X7r1lvJRG04JxE0E0nNi-2">
          <mxGeometry relative="1" as="geometry" />
        </mxCell>
        <mxCell id="X7r1lvJRG04JxE0E0nNi-11" value="组信息过期删除" style="edgeLabel;html=1;align=center;verticalAlign=middle;resizable=0;points=[];" vertex="1" connectable="0" parent="X7r1lvJRG04JxE0E0nNi-3">
          <mxGeometry x="-0.0833" relative="1" as="geometry">
            <mxPoint as="offset" />
          </mxGeometry>
        </mxCell>
        <mxCell id="X7r1lvJRG04JxE0E0nNi-7" value="" style="edgeStyle=orthogonalEdgeStyle;rounded=0;orthogonalLoop=1;jettySize=auto;html=1;" edge="1" parent="1" source="X7r1lvJRG04JxE0E0nNi-1" target="X7r1lvJRG04JxE0E0nNi-6">
          <mxGeometry relative="1" as="geometry" />
        </mxCell>
        <mxCell id="X7r1lvJRG04JxE0E0nNi-12" value="准备开启Rebalance" style="edgeLabel;html=1;align=center;verticalAlign=middle;resizable=0;points=[];" vertex="1" connectable="0" parent="X7r1lvJRG04JxE0E0nNi-7">
          <mxGeometry x="-0.2267" y="1" relative="1" as="geometry">
            <mxPoint as="offset" />
          </mxGeometry>
        </mxCell>
        <mxCell id="X7r1lvJRG04JxE0E0nNi-1" value="Empty" style="rounded=1;whiteSpace=wrap;html=1;" vertex="1" parent="1">
          <mxGeometry x="70" y="110" width="120" height="60" as="geometry" />
        </mxCell>
        <mxCell id="X7r1lvJRG04JxE0E0nNi-2" value="Dead" style="whiteSpace=wrap;html=1;rounded=1;" vertex="1" parent="1">
          <mxGeometry x="430" y="110" width="120" height="60" as="geometry" />
        </mxCell>
        <mxCell id="X7r1lvJRG04JxE0E0nNi-25" style="edgeStyle=orthogonalEdgeStyle;curved=1;rounded=0;orthogonalLoop=1;jettySize=auto;html=1;exitX=0.5;exitY=0;exitDx=0;exitDy=0;entryX=1;entryY=0.5;entryDx=0;entryDy=0;" edge="1" parent="1" source="X7r1lvJRG04JxE0E0nNi-4" target="X7r1lvJRG04JxE0E0nNi-2">
          <mxGeometry relative="1" as="geometry" />
        </mxCell>
        <mxCell id="X7r1lvJRG04JxE0E0nNi-28" value="主题分区Leader变更" style="edgeLabel;html=1;align=center;verticalAlign=middle;resizable=0;points=[];" vertex="1" connectable="0" parent="X7r1lvJRG04JxE0E0nNi-25">
          <mxGeometry x="-0.1652" y="26" relative="1" as="geometry">
            <mxPoint as="offset" />
          </mxGeometry>
        </mxCell>
        <mxCell id="X7r1lvJRG04JxE0E0nNi-4" value="Stable" style="whiteSpace=wrap;html=1;rounded=1;" vertex="1" parent="1">
          <mxGeometry x="650" y="210" width="120" height="60" as="geometry" />
        </mxCell>
        <mxCell id="X7r1lvJRG04JxE0E0nNi-9" value="" style="edgeStyle=orthogonalEdgeStyle;rounded=0;orthogonalLoop=1;jettySize=auto;html=1;exitX=1;exitY=0.25;exitDx=0;exitDy=0;entryX=0;entryY=0.25;entryDx=0;entryDy=0;" edge="1" parent="1" source="X7r1lvJRG04JxE0E0nNi-6" target="X7r1lvJRG04JxE0E0nNi-8">
          <mxGeometry relative="1" as="geometry" />
        </mxCell>
        <mxCell id="X7r1lvJRG04JxE0E0nNi-16" value="成员入组" style="edgeLabel;html=1;align=center;verticalAlign=middle;resizable=0;points=[];" vertex="1" connectable="0" parent="X7r1lvJRG04JxE0E0nNi-9">
          <mxGeometry x="-0.2476" y="4" relative="1" as="geometry">
            <mxPoint as="offset" />
          </mxGeometry>
        </mxCell>
        <mxCell id="X7r1lvJRG04JxE0E0nNi-13" style="edgeStyle=orthogonalEdgeStyle;curved=1;rounded=0;orthogonalLoop=1;jettySize=auto;html=1;exitX=0.75;exitY=0;exitDx=0;exitDy=0;entryX=0.75;entryY=1;entryDx=0;entryDy=0;" edge="1" parent="1" source="X7r1lvJRG04JxE0E0nNi-6" target="X7r1lvJRG04JxE0E0nNi-1">
          <mxGeometry relative="1" as="geometry" />
        </mxCell>
        <mxCell id="X7r1lvJRG04JxE0E0nNi-14" value="组内成员离组" style="edgeLabel;html=1;align=center;verticalAlign=middle;resizable=0;points=[];" vertex="1" connectable="0" parent="X7r1lvJRG04JxE0E0nNi-13">
          <mxGeometry x="-0.16" y="1" relative="1" as="geometry">
            <mxPoint as="offset" />
          </mxGeometry>
        </mxCell>
        <mxCell id="X7r1lvJRG04JxE0E0nNi-23" style="edgeStyle=orthogonalEdgeStyle;curved=1;rounded=0;orthogonalLoop=1;jettySize=auto;html=1;exitX=1;exitY=0;exitDx=0;exitDy=0;entryX=0.25;entryY=1;entryDx=0;entryDy=0;" edge="1" parent="1" source="X7r1lvJRG04JxE0E0nNi-6" target="X7r1lvJRG04JxE0E0nNi-2">
          <mxGeometry relative="1" as="geometry" />
        </mxCell>
        <mxCell id="X7r1lvJRG04JxE0E0nNi-26" value="主题分区Leader变更" style="edgeLabel;html=1;align=center;verticalAlign=middle;resizable=0;points=[];" vertex="1" connectable="0" parent="X7r1lvJRG04JxE0E0nNi-23">
          <mxGeometry x="0.0095" y="-4" relative="1" as="geometry">
            <mxPoint as="offset" />
          </mxGeometry>
        </mxCell>
        <mxCell id="X7r1lvJRG04JxE0E0nNi-6" value="PreparingRebalance" style="rounded=1;whiteSpace=wrap;html=1;" vertex="1" parent="1">
          <mxGeometry x="70" y="320" width="120" height="60" as="geometry" />
        </mxCell>
        <mxCell id="X7r1lvJRG04JxE0E0nNi-10" style="edgeStyle=orthogonalEdgeStyle;rounded=0;orthogonalLoop=1;jettySize=auto;html=1;exitX=1;exitY=0.5;exitDx=0;exitDy=0;curved=1;" edge="1" parent="1" source="X7r1lvJRG04JxE0E0nNi-8" target="X7r1lvJRG04JxE0E0nNi-4">
          <mxGeometry relative="1" as="geometry" />
        </mxCell>
        <mxCell id="X7r1lvJRG04JxE0E0nNi-20" value="leader完成分配" style="edgeLabel;html=1;align=center;verticalAlign=middle;resizable=0;points=[];" vertex="1" connectable="0" parent="X7r1lvJRG04JxE0E0nNi-10">
          <mxGeometry x="-0.0769" y="3" relative="1" as="geometry">
            <mxPoint as="offset" />
          </mxGeometry>
        </mxCell>
        <mxCell id="X7r1lvJRG04JxE0E0nNi-15" style="edgeStyle=orthogonalEdgeStyle;curved=1;rounded=0;orthogonalLoop=1;jettySize=auto;html=1;exitX=0;exitY=0.75;exitDx=0;exitDy=0;entryX=1;entryY=0.75;entryDx=0;entryDy=0;" edge="1" parent="1" source="X7r1lvJRG04JxE0E0nNi-8" target="X7r1lvJRG04JxE0E0nNi-6">
          <mxGeometry relative="1" as="geometry" />
        </mxCell>
        <mxCell id="X7r1lvJRG04JxE0E0nNi-17" value="成员加入/离开" style="edgeLabel;html=1;align=center;verticalAlign=middle;resizable=0;points=[];" vertex="1" connectable="0" parent="X7r1lvJRG04JxE0E0nNi-15">
          <mxGeometry y="-3" relative="1" as="geometry">
            <mxPoint as="offset" />
          </mxGeometry>
        </mxCell>
        <mxCell id="X7r1lvJRG04JxE0E0nNi-21" style="edgeStyle=orthogonalEdgeStyle;curved=1;rounded=0;orthogonalLoop=1;jettySize=auto;html=1;exitX=0.5;exitY=1;exitDx=0;exitDy=0;entryX=0.5;entryY=1;entryDx=0;entryDy=0;" edge="1" parent="1" source="X7r1lvJRG04JxE0E0nNi-8" target="X7r1lvJRG04JxE0E0nNi-6">
          <mxGeometry relative="1" as="geometry">
            <Array as="points">
              <mxPoint x="470" y="390" />
              <mxPoint x="470" y="450" />
              <mxPoint x="130" y="450" />
            </Array>
          </mxGeometry>
        </mxCell>
        <mxCell id="X7r1lvJRG04JxE0E0nNi-22" value="心跳过期/成员离组/新成员加入" style="edgeLabel;html=1;align=center;verticalAlign=middle;resizable=0;points=[];" vertex="1" connectable="0" parent="X7r1lvJRG04JxE0E0nNi-21">
          <mxGeometry x="0.0022" y="-4" relative="1" as="geometry">
            <mxPoint x="3" y="14" as="offset" />
          </mxGeometry>
        </mxCell>
        <mxCell id="X7r1lvJRG04JxE0E0nNi-24" style="edgeStyle=orthogonalEdgeStyle;curved=1;rounded=0;orthogonalLoop=1;jettySize=auto;html=1;exitX=0.5;exitY=0;exitDx=0;exitDy=0;" edge="1" parent="1" source="X7r1lvJRG04JxE0E0nNi-8" target="X7r1lvJRG04JxE0E0nNi-2">
          <mxGeometry relative="1" as="geometry" />
        </mxCell>
        <mxCell id="X7r1lvJRG04JxE0E0nNi-27" value="主题分区Leader变更" style="edgeLabel;html=1;align=center;verticalAlign=middle;resizable=0;points=[];" vertex="1" connectable="0" parent="X7r1lvJRG04JxE0E0nNi-24">
          <mxGeometry x="-0.2" y="-5" relative="1" as="geometry">
            <mxPoint as="offset" />
          </mxGeometry>
        </mxCell>
        <mxCell id="X7r1lvJRG04JxE0E0nNi-8" value="CompletingRebalance" style="whiteSpace=wrap;html=1;rounded=1;" vertex="1" parent="1">
          <mxGeometry x="420" y="330" width="150" height="60" as="geometry" />
        </mxCell>
      </root>
    </mxGraphModel>
  </diagram>
</mxfile>
